<svg xmlns="http://www.w3.org/2000/svg" width="1000" height="250" viewBox="0 0 1000 250">
  <rect x="0" y="0" width="1000" height="250" fill="#a51c30"/>
  <rect x="90" y="70" width="160" height="160" stroke="white" stroke-width="10" fill="none"/>
  <rect x="120" y="100" width="100" height="20" fill="white"/>
  <rect x="120" y="140" width="70" height="20" fill="white"/>
  <rect x="120" y="180" width="40" height="20" fill="white"/>
  <path d="M350 70 H380 V180 H350 Z" fill="white"/>
  <path d="M400 70 H430 V110 H490 V70 H520 V180 H490 V140 H430 V180 H400 Z" fill="white"/>
  <path d="M550 70 H620 V100 H580 V110 H620 V140 H580 V150 H620 V180 H550 Z" fill="white"/>
  <path d="M650 70 H720 V100 H680 V180 H650 Z" fill="white"/>
  <path d="M750 70 H820 V100 H780 V110 H820 V140 H780 V150 H820 V180 H750 Z" fill="white"/>
  <path d="M350 200 H380 V210 H350 Z" fill="white"/>
  <path d="M400 200 H520 V210 H400 Z" fill="white"/>
  <path d="M550 200 H620 V210 H550 Z" fill="white"/>
  <path d="M650 200 H720 V210 H650 Z" fill="white"/>
  <path d="M750 200 H820 V210 H750 Z" fill="white"/>
</svg>