<svg xmlns="http://www.w3.org/2000/svg" width="200" height="40" viewBox="0 0 200 40">
  <rect width="200" height="40" fill="white"/>
  <circle cx="20" cy="20" r="15" fill="#00447C"/>
  <path d="M20 5c8.3 0 15 6.7 15 15s-6.7 15-15 15-15-6.7-15-15 6.7-15 15-15zm0 7.5c-4.1 0-7.5 3.4-7.5 7.5s3.4 7.5 7.5 7.5 7.5-3.4 7.5-7.5-3.4-7.5-7.5-7.5z" fill="#00447C"/>
  <path d="M20 10c5.5 0 10 4.5 10 10s-4.5 10-10 10-10-4.5-10-10 4.5-10 10-10zm0 5c-2.8 0-5 2.2-5 5s2.2 5 5 5 5-2.2 5-5-2.2-5-5-5z" fill="white"/>
  <path d="M45 15h40v5H45v-5zm0 10h40v5H45v-5z" fill="#ED1C24"/>
  <path d="M90 15h65v5H90v-5zm0 10h65v5H90v-5z" fill="#ED1C24"/>
</svg>