<svg xmlns="http://www.w3.org/2000/svg" width="200" height="40" viewBox="0 0 200 40">
  <rect width="200" height="40" fill="white"/>
  <path d="M15 10c0 0 5 0 10 5 5 5 5 10 5 10s-5 0-10-5c-5-5-5-10-5-10z" fill="#FF6B00"/>
  <path d="M20 15c0 0 3 0 6 3 3 3 3 6 3 6s-3 0-6-3c-3-3-3-6-3-6z" fill="#FF6B00"/>
  <path d="M25 20c0 0 1 0 2 1 1 1 1 2 1 2s-1 0-2-1c-1-1-1-2-1-2z" fill="#FF6B00"/>
  <path d="M60 15h80v3H60v-3zm0 7h60v3H60v-3zm0 7h40v3H60v-3z" fill="#1A3A54"/>
  <path d="M60 30h100v3H60v-3z" fill="#1A3A54"/>
</svg>